<?xml version="1.0"?>
<svg xmlns="http://www.w3.org/2000/svg" xmlns:xlink="http://www.w3.org/1999/xlink" xmlns:svgjs="http://svgjs.com/svgjs" version="1.1" width="512" height="512" x="0" y="0" viewBox="0 0 512 512" style="enable-background:new 0 0 512 512" xml:space="preserve" class=""><g><g xmlns="http://www.w3.org/2000/svg"><path d="m256 206c-27.57 0-50 22.43-50 50s22.43 50 50 50 50-22.43 50-50-22.43-50-50-50z" fill="#f5f5f5" data-original="#000000" style="" class=""/><path d="m472.506 131c-22.447-38.882-83.794-36.362-127.923-27.346-13.838-43.893-42.55-103.654-88.583-103.654-46.026 0-74.74 59.744-88.583 103.654-44.222-9.035-105.493-11.505-127.923 27.346-22.564 39.082 10.742 91.275 40.759 125-30.006 33.712-63.326 85.912-40.759 125 22.401 38.8 83.676 36.386 127.923 27.346 13.838 43.893 42.55 103.654 88.583 103.654 46.026 0 74.74-59.744 88.583-103.654 43.979 8.985 105.427 11.62 127.923-27.346 22.564-39.082-10.742-91.275-40.759-125 30.006-33.712 63.326-85.912 40.759-125zm-216.506-111c34.175 0 58.545 55.29 69.022 88.239-22.26 5.864-45.519 14.126-69.022 24.511-23.503-10.385-46.763-18.647-69.022-24.511 10.436-32.82 34.804-88.239 69.022-88.239zm90 236c0 17.056-.785 34.055-2.291 50.679-27.256 19.21-57.401 36.617-87.709 50.635-30.266-13.998-60.414-31.399-87.709-50.635-1.506-16.624-2.291-33.623-2.291-50.679s.785-34.055 2.291-50.679c27.257-19.21 57.401-36.617 87.709-50.635 30.266 13.998 60.414 31.398 87.709 50.635 1.506 16.624 2.291 33.623 2.291 50.679zm18.985-34.849c14.393 11.311 27.59 22.999 39.331 34.849-11.741 11.85-24.938 23.538-39.331 34.849.669-11.476 1.015-23.112 1.015-34.849s-.346-23.373-1.015-34.849zm-24.301 111.783c-2.534 18.046-5.937 35.402-10.138 51.615-16.258-4.257-33.118-9.881-50.252-16.748 20.737-10.387 41.005-22.087 60.39-34.867zm-108.978 34.867c-17.134 6.867-33.994 12.491-50.252 16.748-4.2-16.213-7.604-33.568-10.138-51.615 19.364 12.767 39.63 24.469 60.39 34.867zm-84.691-76.952c-14.392-11.311-27.59-22.999-39.331-34.849 11.741-11.85 24.938-23.538 39.331-34.849-.669 11.476-1.015 23.112-1.015 34.849s.346 23.373 1.015 34.849zm24.301-111.783c2.534-18.046 5.937-35.402 10.138-51.615 16.258 4.257 33.118 9.881 50.252 16.748-20.737 10.387-41.005 22.087-60.39 34.867zm108.977-34.867c17.134-6.867 33.994-12.491 50.252-16.748 4.2 16.213 7.604 33.568 10.138 51.615-19.363-12.766-39.629-24.469-60.39-34.867zm-223.479-3.199c16.734-28.984 71.913-24.659 105.078-18.068-5.771 22.24-10.044 46.321-12.698 71.493-20.505 14.991-39.095 30.814-55.171 46.967-22.313-25.374-54.04-71.238-37.209-100.392zm0 230c-16.811-29.12 14.817-74.929 37.208-100.392 16.076 16.153 34.666 31.976 55.171 46.967 2.654 25.172 6.927 49.253 12.698 71.493-33.078 6.574-88.314 10.967-105.077-18.068zm199.186 121c-34.175 0-58.545-55.29-69.022-88.239 22.259-5.864 45.519-14.126 69.022-24.511 23.503 10.385 46.763 18.647 69.022 24.511-10.436 32.82-34.804 88.239-69.022 88.239zm199.186-121c-16.763 29.038-72.009 24.64-105.078 18.068 5.771-22.24 10.044-46.321 12.698-71.493 20.505-14.991 39.095-30.814 55.171-46.967 22.313 25.374 54.04 71.238 37.209 100.392zm-92.38-176.575c-2.654-25.172-6.927-49.253-12.698-71.493 33.315-6.62 88.387-10.84 105.078 18.068 16.811 29.12-14.817 74.929-37.208 100.392-16.077-16.153-34.667-31.976-55.172-46.967z" fill="#f5f5f5" data-original="#000000" style="" class=""/></g></g></svg>
