<?xml version="1.0"?>
<svg xmlns="http://www.w3.org/2000/svg" xmlns:xlink="http://www.w3.org/1999/xlink" xmlns:svgjs="http://svgjs.com/svgjs" version="1.1" width="512" height="512" x="0" y="0" viewBox="0 0 74 74" style="enable-background:new 0 0 512 512" xml:space="preserve" class=""><g transform="matrix(1.04,0,0,1.04,-1.5417187500000011,-1.4799999999999898)"><path xmlns="http://www.w3.org/2000/svg" d="m37 72a9.453 9.453 0 0 1 -5.395-1.765 1 1 0 0 1 1.129-1.65 7.5 7.5 0 0 0 4.266 1.415c8.115 0 14.97-15.112 14.97-33s-6.855-33-14.97-33-14.97 15.112-14.97 33c0 10.727 2.425 20.844 6.488 27.063a1 1 0 0 1 -1.675 1.094c-4.266-6.532-6.813-17.057-6.813-28.157 0-19.626 7.454-35 16.97-35s16.97 15.374 16.97 35-7.454 35-16.97 35z" fill="#f5f5f5" data-original="#000000" style="" class=""/><path xmlns="http://www.w3.org/2000/svg" d="m19.255 59.931a22.451 22.451 0 0 1 -5.8-.7 10.53 10.53 0 0 1 -6.762-4.731c-2.337-4.05-1.264-9.672 3.021-15.83 4.135-5.941 10.813-11.753 18.806-16.37 11.764-6.794 24.036-9.682 32.021-7.538a10.53 10.53 0 0 1 6.766 4.738 8.42 8.42 0 0 1 .985 2.617 1 1 0 1 1 -1.963.384 6.379 6.379 0 0 0 -.753-2 8.615 8.615 0 0 0 -5.554-3.801c-7.381-1.983-19.352.9-30.5 7.338-7.743 4.469-14.194 10.072-18.164 15.776-3.82 5.486-4.858 10.345-2.932 13.686a8.615 8.615 0 0 0 5.552 3.8c7.381 1.984 19.352-.9 30.5-7.338 10.522-6.076 18.644-14.311 21.21-21.488a1 1 0 1 1 1.883.673c-2.718 7.604-11.183 16.244-22.091 22.553-9.195 5.306-18.699 8.23-26.225 8.231z" fill="#f5f5f5" data-original="#000000" style="" class=""/><path xmlns="http://www.w3.org/2000/svg" d="m54.745 59.931c-7.526 0-17.029-2.924-26.225-8.235-7.993-4.613-14.671-10.425-18.806-16.366-4.285-6.158-5.358-11.78-3.02-15.83a8.273 8.273 0 0 1 1.7-2.1 1 1 0 1 1 1.324 1.5 6.3 6.3 0 0 0 -1.294 1.6c-1.93 3.345-.89 8.206 2.928 13.692 3.97 5.7 10.421 11.307 18.164 15.776 11.15 6.439 23.123 9.319 30.5 7.338a8.613 8.613 0 0 0 5.551-3.8c1.929-3.342.889-8.2-2.929-13.689-3.97-5.7-10.421-11.307-18.164-15.776-10.549-6.1-21.772-9.009-29.287-7.613a1 1 0 1 1 -.366-1.966c7.965-1.486 19.71 1.524 30.653 7.847 7.993 4.613 14.671 10.425 18.806 16.366 4.285 6.158 5.358 11.78 3.02 15.83a10.527 10.527 0 0 1 -6.765 4.734 22.494 22.494 0 0 1 -5.79.692z" fill="#f5f5f5" data-original="#000000" style="" class=""/><path xmlns="http://www.w3.org/2000/svg" d="m37 46.125a9.125 9.125 0 1 1 9.125-9.125 9.135 9.135 0 0 1 -9.125 9.125zm0-16.25a7.125 7.125 0 1 0 7.125 7.125 7.133 7.133 0 0 0 -7.125-7.125z" fill="#f5f5f5" data-original="#000000" style="" class=""/><path xmlns="http://www.w3.org/2000/svg" d="m11.958 20.905a4.283 4.283 0 1 1 4.283-4.283 4.288 4.288 0 0 1 -4.283 4.283zm0-6.566a2.283 2.283 0 1 0 2.283 2.283 2.286 2.286 0 0 0 -2.283-2.283z" fill="#f5f5f5" data-original="#000000" style="" class=""/><path xmlns="http://www.w3.org/2000/svg" d="m67.312 29.875a4.283 4.283 0 1 1 4.288-4.283 4.287 4.287 0 0 1 -4.288 4.283zm0-6.566a2.283 2.283 0 1 0 2.288 2.283 2.285 2.285 0 0 0 -2.288-2.283z" fill="#f5f5f5" data-original="#000000" style="" class=""/><path xmlns="http://www.w3.org/2000/svg" d="m29.834 71.379a4.283 4.283 0 1 1 4.283-4.279 4.288 4.288 0 0 1 -4.283 4.279zm0-6.566a2.283 2.283 0 1 0 2.283 2.287 2.286 2.286 0 0 0 -2.283-2.287z" fill="#f5f5f5" data-original="#000000" style="" class=""/></g></svg>
