<?xml version="1.0"?>
<svg xmlns="http://www.w3.org/2000/svg" xmlns:xlink="http://www.w3.org/1999/xlink" xmlns:svgjs="http://svgjs.com/svgjs" version="1.1" width="512" height="512" x="0" y="0" viewBox="0 0 512 512" style="enable-background:new 0 0 512 512" xml:space="preserve" class=""><g>
<g xmlns="http://www.w3.org/2000/svg">
	<g>
		<path d="M285.072,398.179c-3.822-3.955-10.126-4.08-14.105-0.271c-3.988,3.82-4.125,10.149-0.305,14.138l0.251,0.257    c1.952,1.952,4.512,2.929,7.07,2.929s5.118-0.976,7.07-2.929C288.953,408.404,288.959,402.086,285.072,398.179z" fill="#f5f5f5" data-original="#000000" style=""/>
	</g>
</g>
<g xmlns="http://www.w3.org/2000/svg">
	<g>
		<path d="M294.603,353.574C294.602,353.574,294.603,353.574,294.603,353.574c-16.813,0-31.337,12.53-33.784,29.144    c-0.805,5.464,2.972,10.544,8.435,11.349c5.462,0.802,10.544-2.972,11.349-8.435c1.013-6.875,7.031-12.059,14-12.059    c7.802-0.001,14.151,6.347,14.151,14.149c0,6.938-4.953,12.806-11.776,13.953c-5.447,0.916-9.119,6.073-8.203,11.519    c0.822,4.885,5.056,8.342,9.849,8.342c0.551,0,1.11-0.045,1.67-0.14c16.49-2.772,28.459-16.934,28.459-33.674    C328.752,368.892,313.432,353.574,294.603,353.574z" fill="#f5f5f5" data-original="#000000" style=""/>
	</g>
</g>
<g xmlns="http://www.w3.org/2000/svg">
	<g>
		<path d="M251.986,437.964c-8.27,0-14.999,6.728-14.999,14.999s6.728,14.999,14.999,14.999s14.999-6.728,14.999-14.999    S260.256,437.964,251.986,437.964z" fill="#f5f5f5" data-original="#000000" style=""/>
	</g>
</g>
<g xmlns="http://www.w3.org/2000/svg">
	<g>
		<path d="M198.218,385.132c-8.27,0-14.999,6.728-14.999,14.999s6.728,14.999,14.999,14.999c8.27,0,14.999-6.728,14.999-14.999    S206.489,385.132,198.218,385.132z" fill="#f5f5f5" data-original="#000000" style=""/>
	</g>
</g>
<g xmlns="http://www.w3.org/2000/svg">
	<g>
		<path d="M251.986,184.397c-8.27,0-14.999,6.728-14.999,14.999s6.728,14.999,14.999,14.999s14.999-6.728,14.999-14.999    S260.256,184.397,251.986,184.397z" fill="#f5f5f5" data-original="#000000" style=""/>
	</g>
</g>
<g xmlns="http://www.w3.org/2000/svg">
	<g>
		<path d="M227.935,250.254c-15.99,0-28.998,13.008-28.998,28.998s13.008,28.998,28.998,28.998s28.998-13.008,28.998-28.998    S243.924,250.254,227.935,250.254z M227.935,288.251c-4.962,0-8.999-4.038-8.999-8.999s4.038-8.999,8.999-8.999    c4.962,0,8.999,4.038,8.999,8.999S232.896,288.251,227.935,288.251z" fill="#f5f5f5" data-original="#000000" style=""/>
	</g>
</g>
<g xmlns="http://www.w3.org/2000/svg">
	<g>
		<path d="M463.238,215.986c10.51-12.35,16.349-28.017,16.349-44.602c0-38.046-30.952-68.998-68.998-68.998    c-0.042,0-0.085,0-0.127,0c0.002-0.246,0.003-0.491,0.003-0.736c0-43.627-35.493-79.12-79.12-79.12    c-7.264,0-14.419,0.983-21.353,2.931C295.031,9.195,274.217,0,251.859,0c-28.645,0-54.51,15.208-68.511,39.521    c-9.714-4.114-20.206-6.258-30.849-6.258c-43.627,0-79.121,35.494-79.121,79.121c0,7.036,0.912,13.931,2.72,20.612    c-35.352,8.052-61.474,39.737-61.474,77.134c0,29.112,15.577,55.196,40.464,69.048c-3.31,8.448-5.031,17.488-5.031,26.619    c0,32.502,21.731,61.054,52.46,70.055C109.525,452.092,173.822,512,251.859,512c81.057,0,147.293-64.634,149.899-145.069h12.061    c46.074,0,83.558-37.484,83.558-83.558C497.377,256.349,484.576,231.573,463.238,215.986z M251.859,492.002    c-71.676,0-129.989-58.313-129.989-129.989c0-9.574,1.057-18.943,3.035-27.998h219.947c5.523,0,9.999-4.477,9.999-9.999    c0-5.523-4.477-9.999-9.999-9.999H130.997c13.97-35.342,43.075-63.543,80.933-75.749c4.13-1.332,6.929-5.174,6.931-9.513V127.468    h65.995v101.279c-0.002,4.342,2.799,8.188,6.931,9.52c53.869,17.368,90.062,67.096,90.062,123.745    C381.848,433.688,323.535,492.002,251.859,492.002z M413.819,346.932h-12.714c-2.659-26.825-12.415-52.179-28.611-74.063    c-17.353-23.446-40.626-41.041-67.638-51.215v-94.186h6.999c5.523,0,9.999-4.477,9.999-9.999c0-5.523-4.477-9.999-9.999-9.999    h-119.99c-5.523,0-9.999,4.477-9.999,9.999c0,5.523,4.477,9.999,9.999,9.999h6.999v94.187    c-27.013,10.173-50.287,27.769-67.638,51.215c-17.705,23.922-27.707,51.992-29.162,81.594    c-19.041-8.237-32.009-27.27-32.009-48.667c0-9.249,2.433-18.367,7.034-26.368c1.449-2.52,1.73-5.545,0.77-8.289    c-0.96-2.744-3.067-4.934-5.771-6c-22.759-8.969-37.465-30.563-37.465-55.01c0-30.073,22.603-55.188,52.077-58.684    c1.403-0.146,5.341-0.08,6.866-0.08c11.411,0,22.471,3.305,31.934,9.411c-14.879,17.779-13.978,44.374,2.721,61.074    c1.953,1.953,4.512,2.929,7.07,2.929s5.119-0.976,7.07-2.929c3.905-3.905,3.905-10.236,0-14.142    c-9.865-9.864-9.865-25.915,0-35.78c9.865-9.866,25.916-9.865,35.78,0c3.905,3.905,10.236,3.905,14.142,0    c3.905-3.905,3.905-10.236,0-14.142c-13.488-13.487-33.429-16.663-49.97-9.551c-13.094-10.291-29.091-16.177-45.78-16.803    c-2.092-6.116-3.158-12.499-3.158-19.05c0-32.6,26.522-59.122,59.122-59.122c10.663,0,21.119,2.877,30.24,8.319    c2.502,1.492,5.53,1.82,8.292,0.897c2.763-0.923,4.986-3.005,6.087-5.702c9.131-22.34,30.618-36.777,54.742-36.777    c14.327,0,27.796,5.076,38.398,14.187c-10.125,6.14-18.89,14.539-25.484,24.714c-8.503-1.187-17.156,0.214-24.99,4.152    c-4.935,2.48-6.923,8.49-4.444,13.425c2.48,4.935,8.488,6.925,13.425,4.444c5.419-2.724,11.573-3.174,17.332-1.268    c5.758,1.906,10.429,5.94,13.152,11.36c1.756,3.494,5.282,5.511,8.942,5.511c1.509,0,3.042-0.343,4.483-1.067    c4.935-2.48,6.923-8.49,4.444-13.425c-3.158-6.282-7.71-11.57-13.272-15.546c6.462-8.632,15.124-15.286,24.934-19.34    c0.524-0.208,1.457-0.724,1.488-0.736c6.746-2.577,13.838-3.883,21.076-3.883c32.6,0,59.122,26.522,59.122,59.122    c0,1.266-0.057,2.545-0.142,3.83c-20.901,6.546-37.872,22.973-44.938,44.11c-18.383,6.921-31.501,24.683-31.501,45.457    c0,5.523,4.477,9.999,9.999,9.999c5.523,0,9.999-4.477,9.999-9.999c0-15.749,12.812-28.561,28.561-28.561    c15.749,0,28.561,12.812,28.561,28.561c0,5.523,4.477,9.999,9.999,9.999c5.523,0,9.999-4.477,9.999-9.999    c0-24.741-18.603-45.204-42.554-48.174c7.357-12.676,20.159-21.683,34.857-23.933c0.077-0.012,0.154-0.027,0.231-0.039    c0.183-0.027,0.369-0.046,0.553-0.071c2.17-0.291,4.346-0.446,6.498-0.446c27.019,0,49,21.981,49,49    c0,15.104-6.825,29.141-18.726,38.511c-2.682,2.112-4.102,5.446-3.765,8.841c0.336,3.397,2.382,6.387,5.426,7.931    c21.499,10.909,34.855,32.637,34.855,56.703C477.378,318.419,448.866,346.932,413.819,346.932z" fill="#f5f5f5" data-original="#000000" style=""/>
	</g>
</g>
<g xmlns="http://www.w3.org/2000/svg">
</g>
<g xmlns="http://www.w3.org/2000/svg">
</g>
<g xmlns="http://www.w3.org/2000/svg">
</g>
<g xmlns="http://www.w3.org/2000/svg">
</g>
<g xmlns="http://www.w3.org/2000/svg">
</g>
<g xmlns="http://www.w3.org/2000/svg">
</g>
<g xmlns="http://www.w3.org/2000/svg">
</g>
<g xmlns="http://www.w3.org/2000/svg">
</g>
<g xmlns="http://www.w3.org/2000/svg">
</g>
<g xmlns="http://www.w3.org/2000/svg">
</g>
<g xmlns="http://www.w3.org/2000/svg">
</g>
<g xmlns="http://www.w3.org/2000/svg">
</g>
<g xmlns="http://www.w3.org/2000/svg">
</g>
<g xmlns="http://www.w3.org/2000/svg">
</g>
<g xmlns="http://www.w3.org/2000/svg">
</g>
</g></svg>
